<mxfile host="app.diagrams.net" modified="2023-07-01T00:52:19.777Z" agent="Mozilla/5.0 (Windows NT 10.0; Win64; x64) AppleWebKit/537.36 (KHTML, like Gecko) Chrome/114.0.0.0 Safari/537.36" etag="2IdBPx-_GGnVvzGtWiv1" version="21.5.2" type="github">
  <diagram name="Página-1" id="bP6CFg4XiTYRrgsndQEi">
    <mxGraphModel dx="636" dy="347" grid="1" gridSize="10" guides="1" tooltips="1" connect="1" arrows="1" fold="1" page="1" pageScale="1" pageWidth="827" pageHeight="1169" math="0" shadow="0">
      <root>
        <mxCell id="0" />
        <mxCell id="1" parent="0" />
        <mxCell id="PEyxvJj9VBa5FjkOqRL6-23" value="Memória" style="ellipse;whiteSpace=wrap;html=1;aspect=fixed;" vertex="1" parent="1">
          <mxGeometry x="140" y="665" width="110" height="110" as="geometry" />
        </mxCell>
        <mxCell id="PEyxvJj9VBa5FjkOqRL6-25" value="" style="endArrow=classic;html=1;rounded=0;exitX=1;exitY=0.5;exitDx=0;exitDy=0;entryX=0;entryY=0.5;entryDx=0;entryDy=0;" edge="1" parent="1" source="PEyxvJj9VBa5FjkOqRL6-23" target="PEyxvJj9VBa5FjkOqRL6-30">
          <mxGeometry width="50" height="50" relative="1" as="geometry">
            <mxPoint x="490" y="800" as="sourcePoint" />
            <mxPoint x="290" y="720" as="targetPoint" />
            <Array as="points" />
          </mxGeometry>
        </mxCell>
        <mxCell id="PEyxvJj9VBa5FjkOqRL6-30" value="" style="swimlane;startSize=0;" vertex="1" parent="1">
          <mxGeometry x="280" y="685" width="35" height="70" as="geometry" />
        </mxCell>
        <mxCell id="PEyxvJj9VBa5FjkOqRL6-31" value="IR" style="text;html=1;strokeColor=none;fillColor=none;align=center;verticalAlign=middle;whiteSpace=wrap;rounded=0;" vertex="1" parent="PEyxvJj9VBa5FjkOqRL6-30">
          <mxGeometry x="-2.5" y="22.5" width="40" height="25" as="geometry" />
        </mxCell>
        <mxCell id="PEyxvJj9VBa5FjkOqRL6-36" value="B Reg" style="rhombus;whiteSpace=wrap;html=1;" vertex="1" parent="1">
          <mxGeometry x="340" y="662.5" width="80" height="115" as="geometry" />
        </mxCell>
        <mxCell id="PEyxvJj9VBa5FjkOqRL6-41" value="" style="endArrow=classic;html=1;rounded=0;exitX=1;exitY=0.75;exitDx=0;exitDy=0;entryX=0.163;entryY=0.65;entryDx=0;entryDy=0;entryPerimeter=0;" edge="1" parent="1" source="PEyxvJj9VBa5FjkOqRL6-30" target="PEyxvJj9VBa5FjkOqRL6-36">
          <mxGeometry width="50" height="50" relative="1" as="geometry">
            <mxPoint x="370" y="770" as="sourcePoint" />
            <mxPoint x="420" y="720" as="targetPoint" />
          </mxGeometry>
        </mxCell>
        <mxCell id="PEyxvJj9VBa5FjkOqRL6-42" value="" style="endArrow=classic;html=1;rounded=0;exitX=1;exitY=0.75;exitDx=0;exitDy=0;entryX=0.163;entryY=0.65;entryDx=0;entryDy=0;entryPerimeter=0;" edge="1" parent="1">
          <mxGeometry width="50" height="50" relative="1" as="geometry">
            <mxPoint x="315" y="705" as="sourcePoint" />
            <mxPoint x="353" y="704" as="targetPoint" />
          </mxGeometry>
        </mxCell>
        <mxCell id="PEyxvJj9VBa5FjkOqRL6-44" value="B" style="rounded=1;whiteSpace=wrap;html=1;" vertex="1" parent="1">
          <mxGeometry x="430" y="750" width="30" height="15" as="geometry" />
        </mxCell>
        <mxCell id="PEyxvJj9VBa5FjkOqRL6-45" value="A" style="rounded=1;whiteSpace=wrap;html=1;" vertex="1" parent="1">
          <mxGeometry x="430" y="675" width="30" height="15" as="geometry" />
        </mxCell>
        <mxCell id="PEyxvJj9VBa5FjkOqRL6-46" value="" style="endArrow=classic;html=1;rounded=0;exitX=1;exitY=0;exitDx=0;exitDy=0;entryX=0;entryY=0.5;entryDx=0;entryDy=0;" edge="1" parent="1" source="PEyxvJj9VBa5FjkOqRL6-36" target="PEyxvJj9VBa5FjkOqRL6-45">
          <mxGeometry width="50" height="50" relative="1" as="geometry">
            <mxPoint x="370" y="770" as="sourcePoint" />
            <mxPoint x="420" y="720" as="targetPoint" />
          </mxGeometry>
        </mxCell>
        <mxCell id="PEyxvJj9VBa5FjkOqRL6-47" value="" style="endArrow=classic;html=1;rounded=0;" edge="1" parent="1" source="PEyxvJj9VBa5FjkOqRL6-36">
          <mxGeometry width="50" height="50" relative="1" as="geometry">
            <mxPoint x="370" y="770" as="sourcePoint" />
            <mxPoint x="420" y="720" as="targetPoint" />
          </mxGeometry>
        </mxCell>
        <mxCell id="PEyxvJj9VBa5FjkOqRL6-48" value="" style="endArrow=classic;html=1;rounded=0;exitX=1;exitY=1;exitDx=0;exitDy=0;entryX=0;entryY=0.5;entryDx=0;entryDy=0;" edge="1" parent="1" source="PEyxvJj9VBa5FjkOqRL6-36" target="PEyxvJj9VBa5FjkOqRL6-44">
          <mxGeometry width="50" height="50" relative="1" as="geometry">
            <mxPoint x="400" y="755" as="sourcePoint" />
            <mxPoint x="430" y="747" as="targetPoint" />
          </mxGeometry>
        </mxCell>
        <mxCell id="PEyxvJj9VBa5FjkOqRL6-49" value="" style="shape=trapezoid;perimeter=trapezoidPerimeter;whiteSpace=wrap;html=1;fixedSize=1;rotation=90;" vertex="1" parent="1">
          <mxGeometry x="470" y="657.5" width="50" height="17.5" as="geometry" />
        </mxCell>
        <mxCell id="PEyxvJj9VBa5FjkOqRL6-50" value="" style="shape=trapezoid;perimeter=trapezoidPerimeter;whiteSpace=wrap;html=1;fixedSize=1;rotation=90;" vertex="1" parent="1">
          <mxGeometry x="470" y="765" width="50" height="17.5" as="geometry" />
        </mxCell>
        <mxCell id="PEyxvJj9VBa5FjkOqRL6-51" value="" style="endArrow=classic;html=1;rounded=0;exitX=1;exitY=0.5;exitDx=0;exitDy=0;entryX=0.75;entryY=1;entryDx=0;entryDy=0;" edge="1" parent="1" source="PEyxvJj9VBa5FjkOqRL6-45" target="PEyxvJj9VBa5FjkOqRL6-49">
          <mxGeometry width="50" height="50" relative="1" as="geometry">
            <mxPoint x="370" y="770" as="sourcePoint" />
            <mxPoint x="420" y="720" as="targetPoint" />
          </mxGeometry>
        </mxCell>
        <mxCell id="PEyxvJj9VBa5FjkOqRL6-52" value="" style="endArrow=classic;html=1;rounded=0;exitX=1;exitY=0.5;exitDx=0;exitDy=0;entryX=0.25;entryY=1;entryDx=0;entryDy=0;" edge="1" parent="1" source="PEyxvJj9VBa5FjkOqRL6-44" target="PEyxvJj9VBa5FjkOqRL6-50">
          <mxGeometry width="50" height="50" relative="1" as="geometry">
            <mxPoint x="370" y="770" as="sourcePoint" />
            <mxPoint x="420" y="720" as="targetPoint" />
          </mxGeometry>
        </mxCell>
        <mxCell id="PEyxvJj9VBa5FjkOqRL6-56" value="" style="swimlane;startSize=0;" vertex="1" parent="1">
          <mxGeometry x="530" y="670" width="50" height="95" as="geometry" />
        </mxCell>
        <mxCell id="PEyxvJj9VBa5FjkOqRL6-57" value="ULA" style="text;html=1;strokeColor=none;fillColor=none;align=center;verticalAlign=middle;whiteSpace=wrap;rounded=0;" vertex="1" parent="PEyxvJj9VBa5FjkOqRL6-56">
          <mxGeometry x="5" y="27.5" width="40" height="25" as="geometry" />
        </mxCell>
        <mxCell id="PEyxvJj9VBa5FjkOqRL6-59" value="" style="endArrow=classic;html=1;rounded=0;exitX=0.5;exitY=0;exitDx=0;exitDy=0;entryX=0;entryY=0.25;entryDx=0;entryDy=0;" edge="1" parent="1" source="PEyxvJj9VBa5FjkOqRL6-49" target="PEyxvJj9VBa5FjkOqRL6-56">
          <mxGeometry width="50" height="50" relative="1" as="geometry">
            <mxPoint x="490" y="650" as="sourcePoint" />
            <mxPoint x="540" y="600" as="targetPoint" />
          </mxGeometry>
        </mxCell>
        <mxCell id="PEyxvJj9VBa5FjkOqRL6-60" value="" style="endArrow=classic;html=1;rounded=0;exitX=0.5;exitY=0;exitDx=0;exitDy=0;entryX=0;entryY=0.75;entryDx=0;entryDy=0;" edge="1" parent="1" source="PEyxvJj9VBa5FjkOqRL6-50" target="PEyxvJj9VBa5FjkOqRL6-56">
          <mxGeometry width="50" height="50" relative="1" as="geometry">
            <mxPoint x="520" y="800" as="sourcePoint" />
            <mxPoint x="570" y="750" as="targetPoint" />
          </mxGeometry>
        </mxCell>
        <mxCell id="PEyxvJj9VBa5FjkOqRL6-61" value="&lt;font style=&quot;font-size: 10px;&quot;&gt;MUX 1&lt;/font&gt;" style="text;html=1;strokeColor=none;fillColor=none;align=center;verticalAlign=middle;whiteSpace=wrap;rounded=0;" vertex="1" parent="1">
          <mxGeometry x="470" y="630" width="40" as="geometry" />
        </mxCell>
        <mxCell id="PEyxvJj9VBa5FjkOqRL6-62" value="&lt;font style=&quot;font-size: 10px;&quot;&gt;MUX 2&lt;/font&gt;" style="text;html=1;strokeColor=none;fillColor=none;align=center;verticalAlign=middle;whiteSpace=wrap;rounded=0;" vertex="1" parent="1">
          <mxGeometry x="470" y="810" width="40" as="geometry" />
        </mxCell>
        <mxCell id="PEyxvJj9VBa5FjkOqRL6-63" value="" style="endArrow=classic;html=1;rounded=0;entryX=0.75;entryY=1;entryDx=0;entryDy=0;" edge="1" parent="1" target="PEyxvJj9VBa5FjkOqRL6-50">
          <mxGeometry width="50" height="50" relative="1" as="geometry">
            <mxPoint x="460" y="786" as="sourcePoint" />
            <mxPoint x="450" y="680" as="targetPoint" />
          </mxGeometry>
        </mxCell>
      </root>
    </mxGraphModel>
  </diagram>
</mxfile>
